<svg width="168" height="47" viewBox="0 0 168 47" fill="none" xmlns="http://www.w3.org/2000/svg">
<path d="M14.8943 10.1077H28.3979L22.9712 20.7964H28.3979L18.9327 36.8924V24.8203H14.8943V10.1077Z" fill="#09BBB7"/>
<path d="M47.3543 35.3466C45.3083 35.3466 43.7142 34.8315 42.5728 33.8014C41.4314 32.7497 40.8605 31.1939 40.8605 29.1336V13.9391H45.9005V29.0692C45.9005 29.7989 46.0943 30.3676 46.482 30.7754C46.8697 31.1617 47.3973 31.3548 48.0651 31.3548C48.8621 31.3548 49.5406 31.1402 50.1005 30.711L51.4574 34.2521C50.9405 34.6168 50.316 34.8959 49.5836 35.0891C48.8728 35.2607 48.1297 35.3466 47.3543 35.3466ZM38.179 22.0192V18.1562H50.2297V22.0192H38.179ZM62.3764 35.3466C60.395 35.3466 58.6504 34.9603 57.1426 34.1877C55.6564 33.4151 54.504 32.3634 53.6857 31.0329C52.8673 29.6809 52.458 28.1464 52.458 26.4295C52.458 24.6911 52.8563 23.1567 53.6534 21.8261C54.4717 20.474 55.5812 19.4224 56.9811 18.6713C58.381 17.8987 59.964 17.5124 61.7303 17.5124C63.4319 17.5124 64.9611 17.8772 66.318 18.6069C67.6966 19.3151 68.784 20.3452 69.5811 21.6973C70.3781 23.0279 70.7764 24.6268 70.7764 26.4939C70.7764 26.687 70.7658 26.9124 70.7441 27.1699C70.7225 27.406 70.7012 27.6313 70.6795 27.8459H56.5611V24.9165H68.0303L66.0918 25.7857C66.0918 24.8843 65.9086 24.101 65.5426 23.4357C65.1766 22.7704 64.6703 22.2553 64.0241 21.8905C63.378 21.5042 62.6242 21.311 61.7626 21.311C60.901 21.311 60.1366 21.5042 59.4688 21.8905C58.8226 22.2553 58.3163 22.7811 57.9503 23.4678C57.5842 24.1332 57.4011 24.9272 57.4011 25.85V26.6226C57.4011 27.5669 57.6056 28.4039 58.0149 29.1336C58.4456 29.8418 59.0381 30.3891 59.7918 30.7754C60.5672 31.1402 61.4718 31.3226 62.5057 31.3226C63.4319 31.3226 64.2396 31.1832 64.9288 30.9041C65.6395 30.6251 66.2857 30.2066 66.8672 29.6487L69.5488 32.5459C68.7517 33.4473 67.7502 34.1449 66.5441 34.6384C65.3381 35.1107 63.9489 35.3466 62.3764 35.3466ZM82.5319 35.3466C80.6581 35.3466 78.9887 34.9709 77.5242 34.2199C76.0597 33.4473 74.9073 32.385 74.0673 31.0329C73.249 29.6809 72.8396 28.1464 72.8396 26.4295C72.8396 24.6911 73.249 23.1567 74.0673 21.8261C74.9073 20.474 76.0597 19.4224 77.5242 18.6713C78.9887 17.8987 80.6581 17.5124 82.5319 17.5124C84.3628 17.5124 85.9565 17.8987 87.3135 18.6713C88.6704 19.4224 89.6719 20.5062 90.3181 21.9226L86.4088 24.0151C85.9565 23.1996 85.3857 22.5987 84.6965 22.2124C84.0287 21.8261 83.2966 21.6329 82.4996 21.6329C81.638 21.6329 80.8626 21.8261 80.1735 22.2124C79.4843 22.5987 78.9351 23.1459 78.5258 23.8541C78.1381 24.5624 77.9442 25.4208 77.9442 26.4295C77.9442 27.4382 78.1381 28.2966 78.5258 29.0048C78.9351 29.7131 79.4843 30.2603 80.1735 30.6466C80.8626 31.0329 81.638 31.2261 82.4996 31.2261C83.2966 31.2261 84.0287 31.0436 84.6965 30.6788C85.3857 30.2925 85.9565 29.6809 86.4088 28.8439L90.3181 30.9685C89.6719 32.3634 88.6704 33.4473 87.3135 34.2199C85.9565 34.9709 84.3628 35.3466 82.5319 35.3466ZM103.69 17.5124C105.068 17.5124 106.296 17.7914 107.373 18.3494C108.471 18.8859 109.333 19.7229 109.958 20.8603C110.582 21.9763 110.895 23.4142 110.895 25.174V35.0891H105.855V25.9466C105.855 24.5516 105.542 23.5215 104.918 22.8562C104.314 22.1909 103.453 21.8583 102.333 21.8583C101.536 21.8583 100.815 22.0299 100.168 22.3733C99.5439 22.6952 99.0483 23.1996 98.6822 23.8863C98.3375 24.5731 98.1653 25.453 98.1653 26.5261V35.0891H93.1253V11.2028H98.1653V22.5665L97.0345 21.1178C97.659 19.9589 98.553 19.0683 99.7161 18.4459C100.879 17.8236 102.204 17.5124 103.69 17.5124ZM115.463 35.0891V17.7699H120.503V35.0891H115.463ZM117.983 15.3555C117.057 15.3555 116.303 15.0873 115.722 14.5507C115.14 14.0142 114.849 13.3489 114.849 12.5548C114.849 11.7608 115.14 11.0955 115.722 10.5589C116.303 10.0224 117.057 9.75415 117.983 9.75415C118.909 9.75415 119.663 10.0117 120.245 10.5268C120.826 11.0204 121.117 11.6642 121.117 12.4583C121.117 13.2952 120.826 13.9927 120.245 14.5507C119.684 15.0873 118.931 15.3555 117.983 15.3555ZM125.795 35.0891V17.3836C125.795 15.4306 126.376 13.8747 127.539 12.7158C128.702 11.5354 130.361 10.9452 132.515 10.9452C133.247 10.9452 133.947 11.0204 134.615 11.1706C135.304 11.3208 135.885 11.5569 136.359 11.8788L135.035 15.5165C134.754 15.3233 134.442 15.1731 134.098 15.0658C133.753 14.9585 133.387 14.9048 132.999 14.9048C132.267 14.9048 131.696 15.1195 131.287 15.5487C130.899 15.9564 130.705 16.5788 130.705 17.4158V19.0254L130.834 21.1822V35.0891H125.795ZM123.113 22.0192V18.1562H135.164V22.0192H123.113ZM140.187 41.5918C139.282 41.5918 138.388 41.4524 137.505 41.1733C136.622 40.8942 135.901 40.5079 135.341 40.0144L137.182 36.4411C137.57 36.7846 138.012 37.0528 138.507 37.2459C139.024 37.4391 139.53 37.5357 140.025 37.5357C140.736 37.5357 141.296 37.3641 141.705 37.0206C142.136 36.6987 142.524 36.1514 142.868 35.3788L143.773 33.2542L144.161 32.7069L150.396 17.7699H155.242L147.392 36.1514C146.832 37.5463 146.186 38.6408 145.453 39.435C144.742 40.2291 143.945 40.787 143.062 41.1089C142.201 41.4309 141.242 41.5918 140.187 41.5918ZM143.159 35.7651L135.405 17.7699H140.607L146.616 32.2562L143.159 35.7651ZM158.164 35.3466C157.302 35.3466 156.559 35.0569 155.935 34.4774C155.331 33.8764 155.03 33.1148 155.03 32.1918C155.03 31.269 155.331 30.5286 155.935 29.9706C156.559 29.3911 157.302 29.1014 158.164 29.1014C159.047 29.1014 159.79 29.3911 160.393 29.9706C160.996 30.5286 161.298 31.269 161.298 32.1918C161.298 33.1148 160.996 33.8764 160.393 34.4774C159.79 35.0569 159.047 35.3466 158.164 35.3466Z" fill="white"/>
</svg>
